<?xml version="1.0" encoding="UTF-8" standalone="no"?>
<svg width="180px" height="180px" viewBox="0 0 180 180" version="1.1" xmlns="http://www.w3.org/2000/svg" xmlns:xlink="http://www.w3.org/1999/xlink" xmlns:sketch="http://www.bohemiancoding.com/sketch/ns">
    <!-- Generator: Sketch 3.0.1 (7597) - http://www.bohemiancoding.com/sketch -->
    <title>linknado</title>
    <description>Created with Sketch.</description>
    <defs></defs>
    <g id="Page-3" stroke="none" stroke-width="1" fill="none" fill-rule="evenodd" sketch:type="MSPage">
        <g id="Oval-3-+-User" sketch:type="MSLayerGroup">
            <circle id="Oval-3" fill="#D8D8D8" sketch:type="MSShapeGroup" cx="90" cy="90" r="90"></circle>
            <path d="M139,134.8125 L139,138.9375 C139,139.548614 138.80903,140.045137 138.427083,140.427083 C138.045137,140.80903 137.548614,141 136.9375,141 L42.0625,141 C41.4513858,141 40.954863,140.80903 40.5729167,140.427083 C40.1909703,140.045137 40,139.548614 40,138.9375 L40,134.8125 C40,130.993036 41.2795011,127.765638 43.8385417,125.130208 C46.3975822,122.494778 49.4913013,120.432299 53.1197917,118.942708 C56.748282,117.453118 60.376718,116.039937 64.0052083,114.703125 C67.6336987,113.366313 70.7274178,111.628483 73.2864583,109.489583 C75.8454989,107.350684 77.125,104.791682 77.125,101.8125 C76.8194429,101.506943 76.3802112,101.029517 75.8072917,100.380208 C75.2343721,99.7308995 74.2413265,98.2795252 72.828125,96.0260417 C71.4149235,93.7725582 70.1545194,91.3854293 69.046875,88.8645833 C67.9392306,86.3437374 66.9461849,83.0781451 66.0677083,79.0677083 C65.1892317,75.0572716 64.75,70.9514099 64.75,66.75 C64.75,59.9513549 67.175323,54.1267604 72.0260417,49.2760417 C76.8767604,44.425323 82.7013549,42 89.5,42 C96.2986451,42 102.12324,44.425323 106.973958,49.2760417 C111.824677,54.1267604 114.25,59.9513549 114.25,66.75 C114.25,70.9514099 113.829865,75.0381746 112.989583,79.0104167 C112.149301,82.9826587 111.118062,86.2864452 109.895833,88.921875 C108.673605,91.5573048 107.451395,93.8871427 106.229167,95.9114583 C105.006938,97.935774 103.975699,99.4444395 103.135417,100.4375 L101.875,101.8125 C101.875,104.791682 103.154501,107.350684 105.713542,109.489583 C108.272582,111.628483 111.366301,113.366313 114.994792,114.703125 C118.623282,116.039937 122.251718,117.453118 125.880208,118.942708 C129.508699,120.432299 132.602418,122.494778 135.161458,125.130208 C137.720499,127.765638 139,130.993036 139,134.8125 L139,134.8125 Z" id="User" fill="#4A4A4A" sketch:type="MSShapeGroup"></path>
        </g>
    </g>
</svg>