<?xml version="1.0" encoding="UTF-8" standalone="no"?>
<svg width="180px" height="180px" viewBox="0 0 180 180" version="1.1" xmlns="http://www.w3.org/2000/svg" xmlns:xlink="http://www.w3.org/1999/xlink" xmlns:sketch="http://www.bohemiancoding.com/sketch/ns">
    <!-- Generator: Sketch 3.0.1 (7597) - http://www.bohemiancoding.com/sketch -->
    <title>linknado</title>
    <description>Created with Sketch.</description>
    <defs></defs>
    <g id="Page-3" stroke="none" stroke-width="1" fill="none" fill-rule="evenodd" sketch:type="MSPage">
        <g id="Oval-4-+-buildings" sketch:type="MSLayerGroup">
            <circle id="Oval-4" fill="#D8D8D8" sketch:type="MSShapeGroup" cx="90" cy="90" r="90"></circle>
            <path d="M41.0625,142 C40.4513858,142 39.954863,141.80903 39.5729167,141.427083 C39.1909703,141.045137 39,140.548614 39,139.9375 L39,82.1875 C39,81.5763858 39.1909703,81.079863 39.5729167,80.6979167 C39.954863,80.3159703 40.4513858,80.125 41.0625,80.125 L65.8125,80.125 C66.4236142,80.125 66.920137,80.3159703 67.3020833,80.6979167 C67.6840297,81.079863 67.875,81.5763858 67.875,82.1875 L67.875,139.9375 C67.875,140.548614 67.6840297,141.045137 67.3020833,141.427083 C66.920137,141.80903 66.4236142,142 65.8125,142 L41.0625,142 Z M135.9375,43 C136.548614,43 137.045137,43.1909703 137.427083,43.5729167 C137.80903,43.954863 138,44.4513858 138,45.0625 L138,139.9375 C138,140.548614 137.80903,141.045137 137.427083,141.427083 C137.045137,141.80903 136.548614,142 135.9375,142 L113.25,142 L113.25,123.4375 L100.875,123.4375 L100.875,142 L78.1875,142 C77.5763858,142 77.079863,141.80903 76.6979167,141.427083 C76.3159703,141.045137 76.125,140.548614 76.125,139.9375 L76.125,45.0625 C76.125,44.4513858 76.3159703,43.954863 76.6979167,43.5729167 C77.079863,43.1909703 77.5763858,43 78.1875,43 L135.9375,43 Z M100.875,104.875 L100.875,92.5 L88.5,92.5 L88.5,104.875 L100.875,104.875 Z M100.875,73.9375 L100.875,61.5625 L88.5,61.5625 L88.5,73.9375 L100.875,73.9375 Z M125.625,104.875 L125.625,92.5 L113.25,92.5 L113.25,104.875 L125.625,104.875 Z M125.625,73.9375 L125.625,61.5625 L113.25,61.5625 L113.25,73.9375 L125.625,73.9375 Z" id="buildings" fill="#4A4A4A" sketch:type="MSShapeGroup"></path>
        </g>
    </g>
</svg>